<svg width="8" height="6" viewBox="0 0 8 6" fill="none" xmlns="http://www.w3.org/2000/svg">
<path d="M3.90295 5.84339C3.75359 5.84263 3.60628 5.80864 3.4717 5.74388C3.33712 5.67912 3.21864 5.58521 3.12486 5.46897L0.661886 2.48532C0.517966 2.3057 0.427399 2.08926 0.400505 1.86067C0.373612 1.63207 0.411475 1.40052 0.509779 1.19241C0.589506 1.01153 0.719613 0.857426 0.88456 0.748499C1.04951 0.639572 1.24232 0.580426 1.43998 0.578125H6.36592C6.56357 0.580426 6.75639 0.639572 6.92134 0.748499C7.08628 0.857426 7.21639 1.01153 7.29611 1.19241C7.39442 1.40052 7.43228 1.63207 7.40539 1.86067C7.3785 2.08926 7.28793 2.3057 7.14401 2.48532L4.68104 5.46897C4.58726 5.58521 4.46878 5.67912 4.33419 5.74388C4.19961 5.80864 4.0523 5.84263 3.90295 5.84339Z" fill="#A8171A"/>
</svg>
