<svg width="28" height="29" viewBox="0 0 28 29" fill="none" xmlns="http://www.w3.org/2000/svg">
<path d="M26.375 1.71235L25.7562 1.0936C24.4156 -0.247021 22.1469 -0.247021 20.8062 1.0936L19.5687 2.3311C17.4031 1.29985 14.9281 0.887353 12.35 1.19673C6.26562 1.9186 1.41875 6.76548 0.69687 12.8499C-0.231255 20.9967 6.05937 27.9061 14 27.9061C16.2687 27.9061 18.4344 27.3905 20.2906 26.3592L22.5594 28.628C22.6625 28.7311 22.7656 28.8342 22.8687 28.8342H22.9719H23.075C23.1781 28.8342 23.1781 28.8342 23.2812 28.8342C23.3844 28.8342 23.3844 28.8342 23.4875 28.8342H23.5906H23.6937C23.7969 28.8342 23.9 28.7311 24.0031 28.628C24.1062 28.5249 24.2094 28.4217 24.2094 28.3186V28.2155V28.1124V28.0092V23.1624C26.1687 20.7905 27.3031 17.7999 27.3031 14.603C27.3031 12.0249 26.5812 9.7561 25.3437 7.6936L26.375 6.66235C27.7156 5.32173 27.7156 3.05298 26.375 1.71235ZM24.3125 15.5311H25.3437C25.0344 18.9342 23.1781 21.9249 20.4969 23.7811C20.0844 24.0905 19.6719 24.2967 19.2594 24.503C18.0219 25.1217 16.5781 25.6374 15.1344 25.7405V24.7092C15.1344 24.1936 14.6187 23.678 14.1031 23.678C13.5875 23.678 13.0719 24.1936 13.0719 24.7092V25.7405C7.60625 25.2249 3.275 20.8936 2.75937 15.428H3.79062C4.30625 15.428 4.82187 14.9124 4.82187 14.3967C4.82187 13.8811 4.30625 13.3655 3.79062 13.3655H2.65625C3.17187 8.00298 7.50312 3.67173 12.9687 3.1561V4.18735C12.9687 4.70298 13.4844 5.2186 14 5.2186C14.5156 5.2186 15.0312 4.70298 15.0312 4.18735V3.1561C20.4969 3.67173 24.8281 8.00298 25.3437 13.4686H24.3125C23.7969 13.4686 23.2812 13.9842 23.2812 14.4999C23.2812 15.0155 23.7969 15.5311 24.3125 15.5311Z" fill="#A8171A"/>
<path d="M14 5.2186V1.0936C12.0406 1.0936 10.0813 1.5061 8.43125 2.3311L7.19375 1.0936C5.85312 -0.247021 3.58437 -0.247021 2.24375 1.0936L1.625 1.71235C0.284375 3.05298 0.284375 5.32173 1.625 6.66235L2.55313 7.59048C1.31563 9.65298 0.59375 11.9217 0.59375 14.4999C0.59375 17.6967 1.72812 20.6874 3.6875 23.0592V27.9061C3.6875 28.0092 3.6875 28.1124 3.6875 28.2155V28.3186C3.6875 28.3186 3.6875 28.3186 3.6875 28.4217C3.6875 28.5249 3.79062 28.628 3.89375 28.7311C3.99687 28.8342 4.1 28.8342 4.20312 28.9374C4.20312 28.9374 4.20312 28.9374 4.30625 28.9374H4.40937C4.5125 28.9374 4.61562 28.9374 4.71875 28.9374C4.82188 28.9374 4.925 28.9374 5.02813 28.9374H5.13125C5.13125 28.9374 5.13125 28.9374 5.23438 28.9374C5.3375 28.9374 5.44063 28.8342 5.54375 28.7311L7.8125 26.4624C9.66875 27.4936 11.8344 28.0092 14.1031 28.0092V23.8842C13.5875 23.8842 13.0719 24.3999 13.0719 24.9155V25.9467C11.525 25.8436 10.1844 25.4311 8.94688 24.7092C8.53438 24.503 8.12187 24.1936 7.70937 23.9874C5.02812 22.1311 3.17187 19.1405 2.8625 15.7374H3.89375C4.40937 15.7374 4.925 15.2217 4.925 14.7061C4.925 14.1905 4.40937 13.6749 3.89375 13.6749H2.65625C3.17188 8.00298 7.50312 3.67173 12.9688 3.1561V4.18735C12.9688 4.70298 13.4844 5.2186 14 5.2186Z" fill="#A8171A"/>
</svg>
