<svg width="18" height="19" viewBox="0 0 18 19" fill="none" xmlns="http://www.w3.org/2000/svg">
<path d="M11.1303 9.699L17.3654 3.47752C17.6384 3.20444 17.7918 2.83406 17.7918 2.44786C17.7918 2.06166 17.6384 1.69128 17.3654 1.4182C17.0923 1.14512 16.722 0.991699 16.3358 0.991699C15.9497 0.991699 15.5794 1.14512 15.3063 1.4182L9.08573 7.65418L2.86514 1.4182C2.5921 1.14512 2.22177 0.991699 1.83563 0.991699C1.44948 0.991699 1.07916 1.14512 0.806111 1.4182C0.533067 1.69128 0.379672 2.06166 0.379672 2.44786C0.379672 2.83406 0.533067 3.20444 0.806111 3.47752L7.0412 9.699L0.806111 15.9205C0.670203 16.0553 0.56233 16.2157 0.488714 16.3924C0.415099 16.5691 0.377197 16.7587 0.377197 16.9501C0.377197 17.1416 0.415099 17.3311 0.488714 17.5079C0.56233 17.6846 0.670203 17.845 0.806111 17.9798C0.94091 18.1157 1.10128 18.2236 1.27798 18.2972C1.45468 18.3709 1.64421 18.4088 1.83563 18.4088C2.02705 18.4088 2.21657 18.3709 2.39327 18.2972C2.56997 18.2236 2.73034 18.1157 2.86514 17.9798L9.08573 11.7438L15.3063 17.9798C15.4411 18.1157 15.6015 18.2236 15.7782 18.2972C15.9549 18.3709 16.1444 18.4088 16.3358 18.4088C16.5273 18.4088 16.7168 18.3709 16.8935 18.2972C17.0702 18.2236 17.2306 18.1157 17.3654 17.9798C17.5013 17.845 17.6091 17.6846 17.6828 17.5079C17.7564 17.3311 17.7943 17.1416 17.7943 16.9501C17.7943 16.7587 17.7564 16.5691 17.6828 16.3924C17.6091 16.2157 17.5013 16.0553 17.3654 15.9205L11.1303 9.699Z" fill="#D1D1D1"/>
</svg>
